{"title":"Later, With Jools Holland.s36eo6.(22nd May 2010)[DTV-RIP-Divx]","uid":5580347,"size":737360841,"categoryP":"video","categoryS":"music_videos","magnet":"?xt=urn:btih:acfed1fd2a02f28878c58299a75cbc9459926f32&amp;dn=Later%2C+With+Jools+Holland.s36eo6.%2822nd+May+2010%29%5BDTV-RIP-Divx%5D&amp;tr=udp%3A%2F%2Ftracker.openbittorrent.com%3A80&amp;tr=udp%3A%2F%2Fopen.demonii.com%3A1337&amp;tr=udp%3A%2F%2Ftracker.coppersurfer.tk%3A6969&amp;tr=udp%3A%2F%2Fexodus.desync.com%3A6969","seeders":0,"leechers":0,"uploader":"seanprince","files":-1,"time":1274520400,"description":"Later, With Jools Holland.s36eo6.(22nd May 2010)[DTV-RIP-Divx]\n\nFirst Shown On BBC 2 On Saturday 22nd May 2010\n\n\nDescription:\n\nJoining Jools are Alicia Keys, who makes a welcome return to the studio to perform tracks from her chart-topping album The Element of Freedom; Yeasayer, the Brooklyn-based band also returning to the show, performing tunes from their ODD BLOOD album; White Rabbits, another Brooklyn band, who make their TV debut on the show with songs from their new It's Frightening long player; and guitar legend Jeff Beck, who is in the room to play a number from Emotion and Commotion, his highest-charting solo album in a career spanning more than four decades. Plus the Creole Choir of Cuba is on hand to perform in the studio.\n\n\nAlicia Keys\n\nAmerican R&amp;B singer, songwriter, pianist and actress Alicia Keys returns to the Later studio. She will be playing tracks off her latest number 1 album The Element of Freedom.\n\nMacy Gray\n\nThe fifteen million album selling Grammy Award winning singer Macy Gray returns to the Later studio in advance of the release of her album The Sellout in June.\n\nCreole Choir of Cuba\n\nHailing from CamagÃƒÂ¼ey, Cuba's third city, the Creole Choir of Cuba sing about their ancestors from Haiti. Singing in Creole, Cuba's second language, this is their TV debut.\n\nYeasayer\n\nStriaght out of Brooklyn New York, Yeasayer made their TV debut on the show back in 2008, and return to play tracks from their album ODD BLOOD.\n\nWhite Rabbits\n\nBrooklyn based White Rabbits make their UK TV debut on Later. Having spent two years on the road touring they released second album It's Frightening earlier this year.\n\nJeff Beck\n\nLegendary guitar hero Jeff Beck is back after a seven year break with a new album - his seventeenth - Emotion and Commotion. He returns to Later to give us a taste of it.\n\n\nGeneral\n\nComplete name : Later, With Jools Holland.s36eo6.divx\nFormat : AVI\nFormat/Info : Audio Video Interleave\nFile size : 703 MiB\nDuration : 1h 2mn\nOverall bit rate : 1 566 Kbps\n\nVideo\nID : 0\nFormat : MPEG-4 Visual\nFormat settings, BVOP : Yes\nFormat settings, QPel : No\nFormat settings, GMC : No warppoints\nFormat settings, Matrix : Default (H.263)\nMuxing mode : Packed bitstream\nCodec ID : DX50\nCodec ID/Hint : DivX 5\nDuration : 1h 2mn\nBit rate : 1 300 Kbps\nWidth : 688 pixels\nHeight : 384 pixels\nDisplay aspect ratio : 16/9\nFrame rate : 25.000 fps\nResolution : 24 bits\nColorimetry : 4:2:0\nScan type : Progressive\nBits/(Pixel*Frame) : 0.197\nStream size : 584 MiB (83%)\nTitle : Video\nWriting library : DivX 6.8.2 (UTC 2008-05-17)\n\nAudio\nID : 1\nFormat : AC-3\nFormat/Info : Audio Coding 3\nCodec ID : 2000\nDuration : 1h 2mn\nBit rate mode : Constant\nBit rate : 256 Kbps\nChannel(s) : 2 channels\nChannel positions : L R\nSampling rate : 48.0 KHz\nStream size : 115 MiB (16%)\nAlignment : Split accross interleaves\nInterleave, duration : 40 ms (1.00 video frame)\nInterleave, preload duration : 500 ms\n","torrent":{"xt":"urn:btih:acfed1fd2a02f28878c58299a75cbc9459926f32","amp;dn":"Later%2C+With+Jools+Holland.s36eo6.%2822nd+May+2010%29%5BDTV-RIP-Divx%5D","amp;tr":["udp%3A%2F%2Ftracker.openbittorrent.com%3A80","udp%3A%2F%2Fopen.demonii.com%3A1337","udp%3A%2F%2Ftracker.coppersurfer.tk%3A6969","udp%3A%2F%2Fexodus.desync.com%3A6969"],"infoHash":"acfed1fd2a02f28878c58299a75cbc9459926f32","infoHashBuffer":{"type":"Buffer","data":[172,254,209,253,42,2,242,136,120,197,130,153,167,92,188,148,89,146,111,50]},"announce":[],"urlList":[]}}